<?xml version="1.0" encoding="utf-8"?>
<svg id="master-artboard" viewBox="0 0 245 209" version="1.1" xmlns="http://www.w3.org/2000/svg" x="0px" y="0px" style="enable-background:new 0 0 336 235.2;" width="245px" height="209px"><rect id="ee-background" x="0" y="0" width="245" height="209" style="fill: white; fill-opacity: 0; pointer-events: none;" transform="matrix(1, 0, 0, 1, 0, 1)"/><g transform="matrix(2.337747812271118, 0, 0, 2.337747812271118, -1401.7342529296875, -442.6803398132324)"><g id="g-1" transform="matrix(1, 0, 0, 1, 0, 0)">
	<g id="g-2">
		<path class="st0" d="M699.8,231c-5.8,14.1-47.1,44.5-47.8,45l0,0c-0.7-0.5-42-30.9-47.8-45s0.5-30.7,14.2-36.7&#10;&#9;&#9;&#9;c12.4-5.4,27-0.6,33.6,11.2c6.7-11.8,21.2-16.6,33.6-11.2C699.3,200.3,705.7,216.8,699.8,231z" style="fill: rgb(197, 197, 197); stroke: rgb(0, 0, 0); stroke-width: 4;"/>
	</g>
</g></g><path d="M 121.14122009277344 100.77030181884766" style="fill: rgb(197, 197, 197); fill-opacity: 1; stroke: rgb(0, 0, 0); stroke-opacity: 1; stroke-width: 4; paint-order: stroke;" transform="matrix(1, 0, 0, 1, 8.730385780334473, 4.365192413330078)"/></svg>