<?xml version="1.0" encoding="utf-8"?>
<svg id="master-artboard" viewBox="0 0 200 198" version="1.1" xmlns="http://www.w3.org/2000/svg" x="0px" y="0px" style="enable-background:new 0 0 336 235.2;" width="200px" height="198px"><rect id="ee-background" x="0" y="0" width="200" height="198" style="fill: white; fill-opacity: 0; pointer-events: none;" transform="matrix(1, 0, 0, 1, 0, 1)"/><g transform="matrix(1.921241173706039, 0, 0, 1.921241173706039, -1141.5879344426253, -637.30153210319)"><g id="g-1" transform="matrix(1, 0, 0, 1, 0, 0)">
	<g id="g-2">
		<path class="st0" d="M597.5,348.6L647,334l49.5,14.6c0.3,2.4,0.5,4.9,0.5,7.3c0,12.2-5.7,66.1-50,78.1c-44.3-12-50-65.8-50-78.1&#10;&#9;&#9;&#9;C597,353.5,597.2,351,597.5,348.6z" style="fill: rgb(197, 197, 197); stroke: rgb(0, 0, 0); stroke-width: 4;"/>
	</g>
</g></g></svg>